<?xml version="1.0" standalone="no"?>
<!DOCTYPE svg PUBLIC "-//W3C//DTD SVG 20010904//EN"
 "http://www.w3.org/TR/2001/REC-SVG-20010904/DTD/svg10.dtd">
<svg version="1.0" xmlns="http://www.w3.org/2000/svg"
 width="900.000000pt" height="500.000000pt" viewBox="0 0 900.000000 500.000000"
 preserveAspectRatio="xMidYMid meet">

<g transform="translate(0.000000,500.000000) scale(0.100000,-0.100000)"
fill="#000000" stroke="none">
<path d="M192 3013 c3 -774 4 -778 26 -851 94 -308 328 -533 683 -657 144 -50
216 -55 334 -20 202 59 369 152 503 279 127 121 207 254 254 421 22 79 23 88
26 843 l3 762 -916 0 -916 0 3 -777z m458 460 c68 -148 125 -271 127 -275 2
-5 0 -8 -4 -8 -8 0 -396 413 -481 512 l-34 38 134 0 134 0 124 -267z m173 26
c50 -203 62 -271 44 -248 -3 4 -283 463 -294 482 -2 4 40 7 94 7 l98 0 58
-241z m158 189 c0 -29 4 -129 8 -223 5 -93 6 -173 2 -178 -5 -5 -110 267 -169
441 -3 9 16 12 77 12 l81 0 1 -52z m199 38 c0 -17 -57 -378 -66 -415 -3 -13
-8 -21 -11 -17 -5 4 -71 407 -73 439 0 4 34 7 75 7 58 0 75 -3 75 -14z m218 2
c-85 -239 -165 -448 -172 -448 -8 0 1 381 10 433 6 27 6 27 86 27 60 0 79 -3
76 -12z m105 -225 c-151 -248 -159 -260 -168 -251 -4 4 95 433 110 476 3 8 33
12 104 12 l100 0 -146 -237z m441 225 c-13 -21 -487 -533 -497 -537 -14 -5
-13 -3 121 291 l117 258 133 0 c101 0 131 -3 126 -12z m-1503 -278 l204 -279
462 -1 462 0 203 282 203 282 3 -148 c1 -83 -2 -153 -7 -160 -5 -6 -83 -65
-174 -131 l-164 -120 64 -3 64 -3 110 102 110 102 -3 -559 c-4 -606 -2 -588
-62 -736 -42 -103 -89 -171 -186 -269 -142 -142 -307 -235 -525 -294 -106 -29
-108 -29 -255 17 -202 64 -412 198 -521 331 -61 76 -130 208 -160 307 -23 74
-23 86 -27 640 l-3 565 33 -30 c18 -17 67 -63 109 -102 l77 -73 68 0 c38 0 64
4 59 8 -6 5 -88 64 -182 131 l-173 122 0 149 c0 83 1 150 3 150 2 0 95 -126
208 -280z"/>
<path d="M284 3105 c-3 -8 -4 -193 -1 -412 5 -422 10 -469 59 -586 55 -134
175 -277 306 -366 108 -73 284 -150 400 -176 l32 -7 -2 779 -3 778 -393 3
c-339 2 -393 0 -398 -13z m427 -211 c9 -11 10 -20 2 -32 -13 -22 -43 -22 -56
-1 -24 38 25 68 54 33z m-3 -90 c12 -13 26 -15 61 -9 89 14 120 11 147 -16 40
-41 41 -85 2 -144 -28 -42 -33 -58 -31 -102 l2 -53 -210 0 -209 0 7 28 c13 47
7 75 -26 126 -41 66 -41 107 -1 148 29 28 34 30 78 23 117 -17 118 -17 131 -1
17 20 28 20 49 0z m182 -344 c0 -6 -77 -10 -211 -10 -137 0 -208 3 -204 10 8
14 415 14 415 0z m0 -30 c0 -6 -77 -10 -211 -10 -137 0 -208 3 -204 10 8 14
415 14 415 0z m-380 -135 l0 -75 -27 0 c-20 0 -24 3 -15 9 10 6 13 26 10 69
-2 48 0 62 12 66 8 2 16 4 18 5 1 0 2 -33 2 -74z m150 63 c0 -19 -54 -137 -63
-138 -21 0 -15 33 12 71 17 23 31 46 31 51 0 13 -68 9 -73 -4 -3 -7 -6 -3 -6
10 -1 20 4 22 49 22 33 0 50 -4 50 -12z m103 -3 c-24 -10 -33 -22 -38 -48 -8
-43 1 -77 21 -77 9 0 14 11 14 30 0 17 -4 30 -10 30 -5 0 -10 5 -10 10 0 15
26 12 40 -5 35 -42 -30 -97 -70 -60 -46 42 -6 135 57 135 l28 -1 -32 -14z
m137 8 c-35 -13 -50 -37 -50 -78 0 -22 5 -46 12 -53 15 -15 3 -16 -23 -2 -14
8 -19 21 -19 52 0 50 30 88 69 87 16 0 20 -3 11 -6z m10 -74 c9 -16 8 -26 -5
-45 -20 -31 -23 -30 -17 1 3 16 -2 33 -13 45 -17 19 -17 20 3 20 12 0 26 -9
32 -21z"/>
<path d="M480 2750 c-27 -27 -25 -44 12 -101 l31 -49 69 0 68 0 0 75 0 75 -28
-6 c-16 -3 -45 1 -66 10 -50 21 -62 20 -86 -4z"/>
<path d="M806 2754 c-16 -9 -43 -14 -62 -12 l-34 4 0 -78 0 -78 64 0 63 0 37
59 c42 68 43 74 16 101 -24 24 -45 25 -84 4z"/>
<path d="M530 2535 c0 -18 5 -25 20 -25 15 0 20 7 20 25 0 18 -5 25 -20 25
-15 0 -20 -7 -20 -25z"/>
<path d="M617 2553 c-4 -3 -7 -15 -7 -25 0 -13 7 -18 25 -18 20 0 25 5 25 25
0 18 -5 25 -18 25 -10 0 -22 -3 -25 -7z"/>
<path d="M700 2535 c0 -20 5 -25 25 -25 20 0 25 5 25 25 0 20 -5 25 -25 25
-20 0 -25 -5 -25 -25z"/>
<path d="M790 2535 c0 -20 5 -25 25 -25 20 0 25 5 25 25 0 20 -5 25 -25 25
-20 0 -25 -5 -25 -25z"/>
<path d="M1137 3113 c-13 -12 -8 -1553 4 -1553 29 0 230 75 303 113 94 49 217
138 270 197 57 63 124 172 152 246 50 134 54 175 54 605 l0 399 -388 0 c-214
0 -392 -3 -395 -7z m381 -326 c9 -6 12 -60 12 -214 l0 -205 -22 7 c-13 4 -63
9 -113 10 -49 1 -102 7 -117 13 l-28 12 0 189 c0 181 1 190 20 196 11 3 24 3
30 0 5 -3 10 -3 10 2 0 10 191 1 208 -10z m290 11 l22 0 0 -188 0 -188 -37
-13 c-21 -8 -76 -14 -123 -14 -47 -1 -93 -5 -102 -9 -15 -7 -18 -3 -18 17 0
30 19 37 117 37 111 0 103 -14 101 184 l-2 171 -6 -165 -5 -165 -30 -6 c-16
-3 -49 -4 -72 -1 -23 2 -55 0 -72 -6 l-31 -11 0 175 c0 207 -9 195 140 187 52
-3 105 -5 118 -5z m-393 -478 c10 0 11 -5 2 -24 -14 -30 -50 -31 -63 -2 -7 16
-5 25 11 38 17 14 21 14 28 2 4 -8 14 -14 22 -14z m302 0 c13 0 14 -3 5 -12
-7 -7 -12 -20 -12 -30 0 -15 -4 -17 -17 -10 -10 5 -23 7 -30 5 -21 -7 -19 41
2 59 17 14 21 14 28 2 4 -8 15 -14 24 -14z m-155 -70 c-5 -18 -15 -26 -34 -27
-20 -1 -25 2 -21 13 3 8 0 21 -7 29 -10 12 -9 15 4 15 9 0 19 7 22 15 5 12 9
11 25 -3 13 -13 16 -25 11 -42z"/>
<path d="M1375 2751 c-25 -6 -27 -8 -10 -12 30 -8 116 2 109 12 -6 10 -54 10
-99 0z"/>
<path d="M1262 2582 c-2 -150 -2 -153 21 -161 33 -13 231 -19 209 -7 -9 6 -52
9 -94 8 -42 -1 -88 2 -102 8 -25 9 -25 9 -29 157 l-3 148 -2 -153z"/>
<path d="M1292 2593 l-2 -143 26 -6 c14 -4 46 -4 72 0 26 3 62 2 80 -3 17 -5
32 -6 32 -1 0 15 -31 20 -116 20 l-83 0 -4 138 -3 137 -2 -142z"/>
<path d="M1350 2700 c0 -6 27 -9 65 -7 84 3 85 17 0 17 -37 0 -65 -4 -65 -10z"/>
<path d="M1385 2660 c-49 -9 -38 -13 37 -14 35 -1 57 3 55 9 -4 13 -41 15 -92
5z"/>
<path d="M1350 2600 c0 -6 27 -9 65 -7 84 3 84 17 0 17 -36 0 -65 -4 -65 -10z"/>
<path d="M1390 2560 c-42 -7 -40 -7 25 -8 48 -1 65 1 55 8 -8 5 -19 9 -25 8
-5 0 -30 -4 -55 -8z"/>
<path d="M1393 2523 c-69 -6 -50 -24 22 -21 36 2 65 6 65 9 0 8 -28 20 -38 17
-4 -1 -26 -3 -49 -5z"/>
<path d="M1790 2601 l0 -169 -24 -6 c-14 -3 -58 -6 -99 -5 -41 1 -82 -3 -90
-7 -25 -14 185 -9 211 5 21 11 22 16 22 181 0 107 -4 170 -10 170 -6 0 -10
-63 -10 -169z"/>
<path d="M1591 2751 c-10 -6 7 -11 53 -16 59 -7 88 -3 75 9 -10 9 -116 15
-128 7z"/>
<path d="M1584 2698 c-5 -7 -2 -9 9 -5 8 3 32 1 52 -4 19 -6 46 -7 58 -3 21 7
20 8 -8 15 -49 11 -103 10 -111 -3z"/>
<path d="M1595 2661 c-16 -6 -12 -9 20 -14 59 -10 105 -8 105 3 0 6 -11 10
-24 10 -13 0 -36 2 -52 5 -16 2 -38 1 -49 -4z"/>
<path d="M1590 2610 c-11 -7 7 -10 59 -10 41 0 72 2 70 4 -11 10 -116 15 -129
6z"/>
<path d="M1586 2561 c-3 -5 21 -12 54 -15 70 -8 106 5 45 16 -56 10 -93 10
-99 -1z"/>
<path d="M1580 2513 c0 -5 32 -9 71 -11 49 -2 69 0 64 7 -7 12 -135 15 -135 4z"/>
<path d="M2480 3431 c0 -6 22 -13 50 -17 93 -12 85 37 85 -554 l0 -522 -24
-19 c-13 -10 -36 -19 -51 -19 -16 0 -35 -3 -44 -6 -46 -18 4 -24 194 -24 116
0 210 4 210 9 0 10 -35 21 -72 21 -53 0 -58 22 -58 269 l0 224 92 -6 c67 -4
99 -11 117 -25 16 -11 64 -93 122 -204 220 -426 432 -671 662 -765 78 -32 227
-45 227 -21 0 11 -14 17 -49 20 -83 8 -156 53 -267 163 -112 112 -204 231
-294 382 -83 139 -192 354 -218 430 l-21 62 67 45 c78 52 126 117 143 192 25
109 -18 241 -99 301 -82 62 -113 67 -459 71 -211 2 -313 0 -313 -7z m549 -62
c108 -46 170 -164 159 -301 -13 -160 -103 -232 -306 -244 l-112 -7 2 284 3
284 30 7 c54 13 169 1 224 -23z"/>
<path d="M5780 3232 c-240 -67 -370 -238 -370 -485 1 -236 108 -388 327 -464
70 -24 92 -27 223 -27 121 -1 160 3 238 23 l92 23 0 147 c0 159 4 171 52 171
18 0 28 5 28 15 0 13 -27 15 -185 15 -151 0 -185 -3 -185 -14 0 -15 30 -26 76
-26 18 0 42 -8 54 -18 21 -17 24 -29 28 -149 4 -120 3 -130 -14 -137 -36 -14
-199 -19 -251 -7 -205 43 -325 214 -327 466 -1 146 37 258 114 335 101 101
286 135 423 78 71 -31 111 -85 143 -195 2 -7 11 -13 20 -13 15 0 16 10 10 93
-11 138 -8 134 -85 158 -94 31 -318 37 -411 11z"/>
<path d="M8427 3240 c-91 -23 -163 -83 -187 -155 -16 -48 -9 -150 14 -197 29
-60 87 -110 198 -171 57 -30 120 -68 141 -84 108 -79 121 -227 27 -306 -71
-60 -226 -42 -297 35 -31 33 -71 118 -79 166 -6 37 -9 42 -28 36 -11 -4 -22
-7 -23 -8 -1 -1 7 -56 18 -122 22 -136 29 -145 116 -170 78 -23 250 -15 314
13 109 49 161 127 161 244 0 126 -53 193 -227 291 -188 106 -225 144 -225 234
0 100 67 158 177 152 92 -6 150 -57 175 -155 7 -31 15 -43 29 -43 16 0 17 7
13 73 -9 131 -10 133 -57 152 -50 20 -205 29 -260 15z"/>
<path d="M3482 3218 c3 -7 20 -14 39 -16 69 -7 66 5 71 -380 4 -278 8 -356 21
-395 37 -115 118 -167 273 -175 115 -6 193 8 302 55 l84 36 43 -43 c26 -26 50
-41 61 -38 18 3 19 24 24 454 4 362 8 454 19 467 8 11 28 17 52 17 28 0 39 4
39 15 0 13 -26 15 -175 15 -149 0 -175 -2 -175 -15 0 -10 10 -15 33 -15 18 0
42 -6 53 -14 18 -14 19 -32 22 -394 l3 -379 -42 -37 c-64 -55 -138 -79 -239
-80 -133 -1 -195 37 -237 146 -14 36 -17 94 -20 373 -4 378 -4 378 65 383 28
2 42 8 42 18 0 12 -30 14 -181 14 -140 0 -180 -3 -177 -12z"/>
<path d="M4536 3199 c-3 -17 -6 -69 -6 -115 0 -65 3 -84 14 -84 9 0 19 20 26
53 16 67 37 102 69 118 14 7 74 14 134 17 l107 4 0 -424 c0 -487 3 -468 -81
-468 -37 0 -49 -4 -49 -15 0 -13 30 -15 206 -15 160 0 205 3 202 13 -3 6 -28
14 -56 17 -28 3 -57 11 -64 18 -10 10 -14 111 -16 442 l-3 430 88 0 c164 -1
203 -23 224 -130 8 -39 16 -60 26 -60 11 0 13 21 11 113 l-3 112 -411 3 -411
2 -7 -31z"/>
<path d="M6462 3218 c3 -7 20 -14 39 -16 72 -7 69 13 69 -451 0 -229 -4 -422
-9 -430 -5 -8 -28 -17 -52 -20 -23 -3 -44 -12 -47 -18 -3 -10 69 -13 335 -13
l339 0 17 73 c10 39 20 94 24 121 5 43 4 48 -12 45 -12 -3 -24 -23 -35 -57
-33 -102 -99 -143 -233 -144 -45 -1 -106 2 -134 6 l-53 8 0 214 0 214 113 0
c137 0 158 -9 170 -68 6 -32 13 -42 28 -42 18 0 19 8 19 130 0 121 -1 130 -19
130 -14 0 -22 -12 -30 -45 -6 -25 -19 -49 -30 -55 -11 -5 -72 -10 -135 -10
l-116 0 0 200 0 200 120 0 c177 0 219 -24 237 -136 6 -39 13 -46 32 -35 10 6
11 31 6 110 l-8 101 -319 0 c-251 0 -319 -3 -316 -12z"/>
<path d="M7300 3216 c0 -12 10 -16 39 -16 72 0 71 9 71 -450 0 -459 1 -450
-71 -450 -28 0 -39 -4 -39 -15 0 -13 26 -15 175 -15 149 0 175 2 175 15 0 10
-10 15 -33 15 -18 0 -42 6 -53 14 -18 13 -19 28 -19 193 l0 178 49 3 c91 6
109 -11 202 -184 104 -195 142 -225 286 -232 76 -4 88 -2 88 12 0 10 -8 16
-24 16 -34 0 -84 38 -136 102 -59 73 -198 330 -182 336 7 2 39 23 71 47 98 73
138 168 112 272 -17 67 -54 111 -120 142 -55 26 -59 26 -323 29 -238 3 -268 2
-268 -12z m458 -62 c76 -38 107 -94 106 -194 0 -85 -22 -140 -74 -183 -40 -34
-89 -47 -177 -47 l-73 0 0 219 c0 166 3 221 13 224 6 3 44 6 83 6 56 1 80 -4
122 -25z"/>
<path d="M4540 1630 c0 -53 4 -90 10 -90 6 0 10 18 10 40 l0 40 45 0 45 0 0
-40 c0 -30 4 -40 16 -40 12 0 15 6 10 23 -3 12 -6 52 -6 90 0 38 -4 67 -10 67
-5 0 -10 -16 -10 -35 0 -35 0 -35 -45 -35 -45 0 -45 0 -45 35 0 19 -4 35 -10
35 -6 0 -10 -37 -10 -90z"/>
<path d="M6490 1645 c0 -68 2 -76 24 -90 14 -9 39 -15 58 -13 42 4 58 34 58
111 0 45 -3 57 -15 57 -13 0 -15 -12 -14 -64 2 -75 -3 -86 -41 -86 -38 0 -50
23 -50 99 0 34 -4 61 -10 61 -6 0 -10 -32 -10 -75z"/>
<path d="M6764 1707 c-11 -29 1 -160 14 -165 11 -3 13 11 7 74 l-6 79 19 -30
c10 -16 31 -51 46 -77 42 -74 56 -65 56 37 0 47 -4 85 -9 85 -4 0 -6 -33 -4
-72 l4 -73 -46 78 c-43 73 -69 94 -81 64z"/>
<path d="M7048 1630 c3 -73 6 -90 19 -90 11 0 14 6 9 23 -3 12 -6 52 -6 90 0
47 -4 67 -12 67 -10 0 -12 -23 -10 -90z"/>
<path d="M8590 1713 c0 -5 11 -26 25 -48 16 -26 24 -55 25 -82 0 -31 4 -43 15
-43 10 0 15 10 15 33 0 18 14 59 31 90 24 45 27 57 15 57 -9 0 -25 -19 -37
-42 l-22 -43 -20 43 c-12 23 -27 42 -34 42 -7 0 -13 -3 -13 -7z"/>
<path d="M4310 1701 c24 -7 25 -9 21 -84 -2 -65 0 -77 13 -77 13 0 16 14 16
79 0 79 0 80 28 84 15 2 -2 4 -38 5 -40 0 -56 -3 -40 -7z"/>
<path d="M5208 1699 c-10 -5 -18 -22 -18 -38 0 -22 8 -32 40 -50 24 -13 40
-30 40 -40 0 -23 -36 -34 -62 -20 -23 13 -39 2 -18 -11 25 -16 69 -11 90 10
33 33 23 64 -32 89 -46 22 -44 46 5 46 20 0 36 5 34 10 -5 14 -58 17 -79 4z"/>
<path d="M5410 1700 c0 -5 11 -10 25 -10 24 0 25 -2 25 -75 0 -60 3 -75 15
-75 12 0 15 15 15 75 0 74 0 75 26 75 14 0 23 4 19 10 -3 6 -33 10 -66 10 -33
0 -59 -4 -59 -10z"/>
<path d="M5685 1701 c-6 -10 -55 -150 -55 -158 0 -2 5 -3 10 -3 6 0 15 11 20
25 7 19 17 25 40 25 23 0 33 -6 40 -25 5 -14 16 -25 24 -25 12 0 9 16 -13 83
-26 78 -49 105 -66 78z m31 -59 c6 -30 5 -32 -21 -32 -21 0 -26 4 -21 16 3 9
9 27 12 41 8 30 21 19 30 -25z"/>
<path d="M5890 1701 c24 -6 25 -11 28 -84 4 -99 22 -101 22 -2 0 73 1 75 25
75 14 0 25 5 25 10 0 6 -27 10 -62 9 -42 -1 -55 -3 -38 -8z"/>
<path d="M7204 1693 c3 -10 15 -48 26 -85 16 -53 25 -68 40 -68 15 0 24 17 45
81 14 45 23 84 21 86 -7 8 -26 -7 -26 -20 0 -7 -9 -39 -19 -72 l-18 -60 -23
78 c-15 49 -28 77 -37 77 -9 0 -12 -7 -9 -17z"/>
<path d="M7714 1688 c3 -13 6 -51 6 -85 0 -35 4 -63 10 -63 6 0 10 16 10 35 0
45 18 45 48 0 12 -19 27 -35 32 -35 15 0 12 8 -12 40 l-22 30 22 20 c46 43 22
80 -51 80 -46 0 -49 -1 -43 -22z m67 2 c10 -6 19 -17 19 -25 0 -14 -29 -35
-49 -35 -6 0 -11 16 -11 35 0 37 9 42 41 25z"/>
<path d="M7972 1698 c-25 -25 -13 -57 29 -83 52 -33 50 -60 -4 -60 -43 0 -49
-12 -10 -21 40 -10 78 15 78 51 0 25 -7 33 -40 51 -42 22 -56 48 -30 57 8 4
26 2 40 -3 20 -7 25 -6 25 5 0 19 -70 21 -88 3z"/>
<path d="M8200 1625 c0 -69 3 -85 15 -85 12 0 15 16 15 85 0 69 -3 85 -15 85
-12 0 -15 -16 -15 -85z"/>
<path d="M8373 1703 c27 -4 27 -5 27 -84 0 -64 3 -79 15 -79 12 0 15 15 15 75
0 68 2 75 19 75 11 0 23 5 26 10 4 6 -19 9 -62 9 -37 -1 -56 -4 -40 -6z"/>
<path d="M4810 1615 l0 -85 55 0 c64 0 73 17 14 26 -36 6 -40 9 -37 33 3 22 9
27 43 32 l40 6 -42 2 c-41 1 -43 3 -43 30 0 28 3 30 43 34 36 3 34 4 -15 5
l-58 2 0 -85z"/>
<path d="M6110 1614 l0 -87 38 7 c20 3 45 6 55 6 9 0 17 5 17 10 0 6 -18 10
-40 10 -38 0 -40 2 -40 29 0 27 4 30 38 34 l37 4 -37 1 c-35 2 -38 4 -38 31 0
27 4 30 38 34 30 3 28 4 -15 5 l-53 2 0 -86z"/>
<path d="M7460 1615 l0 -85 50 0 c28 0 50 4 50 9 0 11 -25 21 -51 21 -16 0
-20 6 -17 28 2 22 9 28 38 33 l35 6 -37 2 c-35 1 -38 3 -38 30 0 28 3 30 43
34 36 3 34 4 -15 5 l-58 2 0 -85z"/>
<path d="M4344 1398 c-44 -21 -59 -107 -26 -147 9 -12 33 -24 53 -27 29 -5 41
-1 65 19 25 22 29 32 28 73 -1 38 -6 52 -28 71 -29 24 -58 28 -92 11z m69 -21
c46 -33 25 -137 -28 -137 -50 0 -75 90 -35 130 23 23 39 25 63 7z"/>
<path d="M4950 1319 c0 -68 3 -90 13 -86 8 3 11 25 9 78 l-3 74 46 -77 c61
-104 75 -103 75 7 0 56 -4 85 -11 85 -8 0 -9 -20 -4 -65 3 -36 3 -65 -2 -65
-4 0 -25 32 -46 70 -27 50 -43 70 -57 70 -18 0 -20 -7 -20 -91z"/>
<path d="M4600 1315 c0 -69 3 -85 15 -85 11 0 15 11 15 40 0 38 1 40 33 41
l32 2 -35 6 c-29 5 -36 11 -38 34 -3 26 -1 27 37 27 23 0 41 5 41 10 0 6 -22
10 -50 10 l-50 0 0 -85z"/>
<path d="M5470 1391 c0 -6 7 -44 17 -86 13 -59 20 -75 34 -75 14 0 21 16 35
78 l17 77 13 -50 c6 -27 15 -62 18 -77 4 -18 13 -28 24 -28 15 0 22 16 35 78
21 94 20 92 3 92 -10 0 -18 -22 -27 -76 -14 -82 -22 -78 -34 19 -6 50 -10 57
-30 57 -20 0 -24 -8 -35 -75 -7 -42 -15 -74 -17 -71 -2 2 -9 34 -16 72 -7 37
-18 69 -25 72 -7 2 -12 -1 -12 -7z"/>
<path d="M5950 1329 c0 -62 -2 -71 -20 -76 -28 -7 -25 -23 5 -23 33 0 45 27
45 104 0 52 -3 66 -15 66 -12 0 -15 -15 -15 -71z"/>
<path d="M6370 1315 c0 -50 4 -85 10 -85 6 0 10 16 10 35 0 47 19 45 50 -5 14
-22 30 -40 37 -40 18 0 16 15 -3 30 -34 29 -37 50 -10 75 14 13 26 28 26 34 0
23 -33 41 -76 41 l-44 0 0 -85z m64 59 c35 -13 12 -54 -30 -54 -9 0 -14 11
-14 30 0 30 11 37 44 24z"/>
<path d="M6622 1388 c-25 -25 -13 -57 29 -83 52 -33 50 -60 -4 -60 -47 0 -43
-19 5 -23 77 -7 93 67 23 104 -22 11 -41 28 -43 36 -4 19 24 28 56 16 16 -5
22 -4 22 7 0 19 -70 21 -88 3z"/>
<path d="M7080 1395 c0 -3 14 -29 30 -58 17 -30 30 -68 30 -85 0 -18 5 -32 10
-32 6 0 10 17 10 38 0 22 12 58 29 90 22 38 25 52 15 52 -8 0 -22 -16 -31 -35
-9 -19 -20 -35 -25 -35 -5 0 -16 16 -25 35 -9 19 -23 35 -30 35 -7 0 -13 -2
-13 -5z"/>
<path d="M5220 1305 l0 -85 55 0 c62 0 74 16 20 26 -30 5 -35 10 -35 35 0 25
4 28 38 32 l37 4 -37 1 c-35 2 -38 4 -38 31 0 27 4 30 38 34 27 3 22 4 -20 5
l-58 2 0 -85z"/>
<path d="M6110 1305 l0 -85 50 0 c58 0 67 16 14 26 -31 6 -35 10 -32 33 2 21
10 27 38 32 l35 6 -38 2 c-36 1 -38 3 -35 29 3 23 9 28 43 33 37 6 36 6 -17 8
l-58 1 0 -85z"/>
<path d="M6840 1305 l0 -85 55 0 c62 0 74 16 20 26 -30 5 -35 10 -35 35 0 25
4 28 38 32 l37 4 -37 1 c-35 2 -38 4 -38 31 0 27 4 30 38 34 27 3 22 4 -20 5
l-58 2 0 -85z"/>
</g>
</svg>
